<svg width="43" height="41" viewBox="0 0 43 41" fill="none" xmlns="http://www.w3.org/2000/svg">
<rect width="43" height="41" fill="#7C7EF2"/>
<path fill-rule="evenodd" clip-rule="evenodd" d="M22.4502 4.21902C22.9749 4.71938 22.9749 5.53062 22.4502 6.03098L7.27535 20.5L22.4502 34.969C22.9749 35.4694 22.9749 36.2806 22.4502 36.781C21.9254 37.2813 21.0746 37.2813 20.5498 36.781L4.42483 21.406C3.90006 20.9056 3.90006 20.0944 4.42483 19.594L20.5498 4.21902C21.0746 3.71866 21.9254 3.71866 22.4502 4.21902Z" fill="white"/>
<path fill-rule="evenodd" clip-rule="evenodd" d="M33.2002 4.21902C33.7249 4.71938 33.7249 5.53062 33.2002 6.03098L18.0253 20.5L33.2002 34.969C33.7249 35.4694 33.7249 36.2806 33.2002 36.781C32.6754 37.2813 31.8246 37.2813 31.2998 36.781L15.1748 21.406C14.6501 20.9056 14.6501 20.0944 15.1748 19.594L31.2998 4.21902C31.8246 3.71866 32.6754 3.71866 33.2002 4.21902Z" fill="white"/>
</svg>
