<svg width="50" height="50" viewBox="0 0 50 50" fill="none" xmlns="http://www.w3.org/2000/svg">
<rect width="50" height="50" rx="10" fill="#5D5FEF"/>
<circle cx="25" cy="25" r="23" fill="#F4C46B"/>
<path fill-rule="evenodd" clip-rule="evenodd" d="M26.0455 15.9708L16.223 11.3987C15.5449 11.0831 14.7335 11.3894 14.4107 12.0829L7.39679 27.1516C7.07398 27.8451 7.362 28.6632 8.04011 28.9788L17.8626 33.5508C18.5407 33.8665 19.3521 33.5601 19.6749 32.8666L26.6888 17.798C27.0116 17.1045 26.7236 16.2864 26.0455 15.9708ZM16.8075 10.143C15.4513 9.51174 13.8285 10.1244 13.1829 11.5114L6.16897 26.5801C5.52336 27.9671 6.09941 29.6033 7.45562 30.2345L17.2781 34.8066C18.6343 35.4378 20.2571 34.8251 20.9027 33.4381L27.9167 18.3695C28.5623 16.9825 27.9862 15.3463 26.63 14.715L16.8075 10.143Z" fill="#9B9CF5"/>
<path d="M15.3463 13.2823C15.5077 12.9355 15.9134 12.7824 16.2524 12.9402L24.8471 16.9407C25.1862 17.0985 25.3302 17.5076 25.1688 17.8543L23.9998 20.3658C23.8384 20.7125 23.4327 20.8657 23.0936 20.7079L14.4989 16.7074C14.1599 16.5495 14.0159 16.1405 14.1773 15.7937L15.3463 13.2823Z" fill="#9B9CF5"/>
<path d="M13.0083 18.3052C13.1697 17.9584 13.5754 17.8053 13.9144 17.9631L15.1423 18.5346C15.4813 18.6924 15.6253 19.1014 15.4639 19.4482L14.8794 20.7039C14.718 21.0507 14.3123 21.2038 13.9733 21.046L12.7455 20.4745C12.4064 20.3167 12.2624 19.9077 12.4238 19.5609L13.0083 18.3052Z" fill="#9B9CF5"/>
<path d="M11.2548 22.0723C11.4162 21.7256 11.8219 21.5724 12.161 21.7302L13.3888 22.3017C13.7278 22.4596 13.8718 22.8686 13.7104 23.2154L13.126 24.4711C12.9646 24.8178 12.5589 24.971 12.2198 24.8132L10.992 24.2417C10.6529 24.0839 10.5089 23.6748 10.6703 23.3281L11.2548 22.0723Z" fill="#9B9CF5"/>
<path d="M9.50134 25.8395C9.66274 25.4927 10.0684 25.3396 10.4075 25.4974L11.6353 26.0689C11.9744 26.2267 12.1184 26.6358 11.957 26.9825L11.3725 28.2382C11.2111 28.585 10.8054 28.7382 10.4663 28.5803L9.23851 28.0088C8.89946 27.851 8.75544 27.442 8.91685 27.0952L9.50134 25.8395Z" fill="#9B9CF5"/>
<path d="M16.6917 20.0197C16.8531 19.6729 17.2588 19.5198 17.5979 19.6776L18.8257 20.2491C19.1648 20.4069 19.3088 20.8159 19.1474 21.1627L18.5629 22.4184C18.4015 22.7652 17.9958 22.9183 17.6567 22.7605L16.4289 22.189C16.0899 22.0312 15.9458 21.6222 16.1072 21.2754L16.6917 20.0197Z" fill="#9B9CF5"/>
<path d="M14.9383 23.7869C15.0997 23.4401 15.5054 23.2869 15.8444 23.4447L17.0722 24.0163C17.4113 24.1741 17.5553 24.5831 17.3939 24.9299L16.8094 26.1856C16.648 26.5323 16.2423 26.6855 15.9032 26.5277L14.6754 25.9562C14.3364 25.7984 14.1924 25.3893 14.3538 25.0426L14.9383 23.7869Z" fill="#9B9CF5"/>
<path d="M13.1848 27.554C13.3462 27.2073 13.7519 27.0541 14.0909 27.2119L15.3188 27.7834C15.6578 27.9412 15.8018 28.3503 15.6404 28.697L15.0559 29.9527C14.8945 30.2995 14.4888 30.4527 14.1498 30.2948L12.922 29.7233C12.5829 29.5655 12.4389 29.1565 12.6003 28.8097L13.1848 27.554Z" fill="#9B9CF5"/>
<path d="M20.3752 21.7342C20.5366 21.3875 20.9423 21.2343 21.2813 21.3921L22.5092 21.9636C22.8482 22.1214 22.9922 22.5305 22.8308 22.8772L22.2463 24.1329C22.0849 24.4797 21.6792 24.6329 21.3402 24.475L20.1124 23.9035C19.7733 23.7457 19.6293 23.3367 19.7907 22.9899L20.3752 21.7342Z" fill="#9B9CF5"/>
<path d="M18.6217 25.5014C18.7831 25.1546 19.1888 25.0014 19.5279 25.1593L20.7557 25.7308C21.0947 25.8886 21.2387 26.2976 21.0773 26.6444L18.7394 31.6673C18.578 32.014 18.1723 32.1672 17.8332 32.0094L16.6054 31.4379C16.2663 31.28 16.1223 30.871 16.2837 30.5242L18.6217 25.5014Z" fill="#9B9CF5"/>
<path fill-rule="evenodd" clip-rule="evenodd" d="M32.9167 37.9118C32.9167 38.6539 33.8791 38.9453 34.2907 38.3278L42.6949 25.7216C43.0271 25.2232 42.6699 24.5556 42.0708 24.5556H35.5556V16.4771C35.5556 15.735 34.5931 15.4436 34.1815 16.0611L25.7774 28.6673C25.4451 29.1657 25.8024 29.8333 26.4014 29.8333H32.9167V37.9118Z" fill="#9B9CF5"/>
</svg>
